<svg xmlns="http://www.w3.org/2000/svg" version="1.1" xmlns:xlink="http://www.w3.org/1999/xlink" width="1000" height="1000"><metadata><rdf:RDF xmlns:rdf="http://www.w3.org/1999/02/22-rdf-syntax-ns#" xmlns:dc="http://purl.org/dc/elements/1.1/"><rdf:Description><dc:creator>RealFaviconGenerator</dc:creator><dc:source>https://realfavicongenerator.net</dc:source></rdf:Description></rdf:RDF></metadata><g clip-path="url(#SvgjsClipPath1105)"><rect width="1000" height="1000" fill="#8774e1"></rect><g transform="matrix(5.333333333333333,0,0,5.333333333333333,100,121.33333333333337)"><svg xmlns="http://www.w3.org/2000/svg" width="150" height="142" viewBox="0 0 150 142" fill="none"><path d="M21.9027 45.7965C24.8788 45.2105 24.1796 45.4058 25.2212 45.7965C20.4593 53.6257 17.3253 75.8583 24.23 86.8752C20.0634 90.0982 8.45622 85.8497 8.1586 81.6012C4.14074 80.5756 0.271695 76.4736 0.271695 72.5181C0.271695 68.5625 -1.36521 54.4984 3.39669 50.6894C6.37289 48.9314 7.41455 48.3067 8.1586 48.1114C10.4899 31.5079 27.9762 0 75.0001 0C122.024 0 139.51 31.5079 141.841 48.1114C142.558 48.2995 143.551 48.8862 146.284 50.5009L146.603 50.6894C151.365 54.4984 149.728 68.5625 149.728 72.5181C149.728 76.4736 145.859 80.5756 141.841 81.6012C141.544 85.8497 129.937 90.0982 125.77 86.8752C132.675 75.8583 129.541 53.6257 124.779 45.7965C125.82 45.4058 125.785 45.2105 128.761 45.7965C132.481 46.529 117.685 9.95575 75.0001 9.95575C32.3149 9.95575 18.1824 46.529 21.9027 45.7965Z" fill="white"></path><path d="M75.0015 17.0237C102.231 17.0237 124.305 39.0977 124.305 66.3274C124.305 80.1502 118.617 92.8931 109.454 102.09C110.27 101.278 111.059 100.438 111.819 99.5715C110.521 103.105 109.755 111.424 117.079 116.435C126.233 122.698 121.401 136.831 111.819 136.831C102.64 136.831 96.3824 134.169 89.3306 114.396C88.7346 114.583 88.1332 114.76 87.5278 114.925L87.5679 129.09V129.162C87.5679 136.103 81.942 141.73 75.0015 141.73C68.0609 141.73 62.4341 136.103 62.4341 129.162L62.4351 129.09L62.4751 114.925C61.9361 114.778 61.4003 114.622 60.8687 114.457C53.8023 134.321 47.5388 136.991 38.3442 136.991C28.7626 136.991 23.9311 122.859 33.0845 116.596C40.4078 111.585 39.6425 103.266 38.3442 99.7327L37.6167 98.884C30.1882 90.0373 25.6978 78.6087 25.6978 66.3274C25.698 39.0977 47.7717 17.0237 75.0015 17.0237ZM84.606 82.2561C82.1624 81.4743 79.5473 82.8215 78.7651 85.2649C78.8387 85.0352 78.7369 85.4202 78.187 85.8499C77.7419 86.1975 76.8525 86.6925 75.1606 86.6926C73.4683 86.6926 72.5784 86.1975 72.1333 85.8499C71.5833 85.4201 71.4816 85.0351 71.5552 85.2649C70.773 82.8214 68.158 81.4743 65.7144 82.2561C63.2707 83.0381 61.9238 85.6532 62.7056 88.0969C63.6718 91.1162 67.4754 95.9846 75.1606 95.9846C82.8457 95.9844 86.6496 91.1161 87.6157 88.0969C88.3973 85.6533 87.0496 83.0381 84.606 82.2561ZM38.311 64.2405C34.586 64.2408 31.566 68.6262 31.5659 74.0364C31.5659 79.4467 34.5859 83.833 38.311 83.8333C42.0363 83.8333 45.0562 79.4469 45.0562 74.0364C45.0561 68.626 42.0362 64.2405 38.311 64.2405ZM112.011 64.2405C108.286 64.2405 105.266 68.626 105.266 74.0364C105.266 79.4469 108.286 83.8333 112.011 83.8333C115.736 83.8332 118.756 79.4469 118.756 74.0364C118.756 68.626 115.736 64.2405 112.011 64.2405Z" fill="white"></path></svg></g></g><defs><clipPath id="SvgjsClipPath1105"><rect width="1000" height="1000" x="0" y="0" rx="250" ry="250"></rect></clipPath></defs></svg>