<svg width="170" height="170" viewBox="0 0 170 170" fill="none" xmlns="http://www.w3.org/2000/svg">
<g clip-path="url(#clip0_2012_10959)">
<rect x="-5" y="-4.59961" width="180" height="180" fill="#3D3D3D"/>
<path d="M98.4284 61.857C98.4284 69.2734 92.4163 75.2856 84.9999 75.2856C77.5835 75.2856 71.5713 69.2734 71.5713 61.857C71.5713 54.4406 77.5835 48.4285 84.9999 48.4285C92.4163 48.4285 98.4284 54.4406 98.4284 61.857Z" stroke="#898989" stroke-width="8.05714"/>
<path d="M71.5716 88.7145L57.4085 98.1566C53.6726 100.647 51.4287 104.84 51.4287 109.33V116.019C51.4287 119.48 54.2344 122.286 57.6954 122.286H85.0001" stroke="#898989" stroke-width="8.05714" stroke-linecap="round" stroke-linejoin="round"/>
<path d="M115.213 61.8574V92.0717M115.213 92.0717V107.077C115.213 110.064 113.086 112.67 110.1 112.576C105.163 112.42 98.4277 110.649 98.4277 102.143C98.4277 88.7146 115.213 92.0717 115.213 92.0717Z" stroke="#898989" stroke-width="6.71428" stroke-linecap="round" stroke-linejoin="round"/>
</g>
<defs>
<clipPath id="clip0_2012_10959">
<rect width="170" height="170" fill="white"/>
</clipPath>
</defs>
</svg>
