<svg width="232" height="232" viewBox="0 0 232 232" fill="none" xmlns="http://www.w3.org/2000/svg">
<rect width="232" height="232" fill="#212121"/>
<path d="M71.75 116C71.75 121.811 72.8946 127.565 75.1183 132.934C77.3421 138.302 80.6015 143.18 84.7105 147.289C88.8195 151.398 93.6976 154.658 99.0663 156.882C104.435 159.105 110.189 160.25 116 160.25C121.811 160.25 127.565 159.105 132.934 156.882C138.302 154.658 143.18 151.398 147.289 147.289C151.398 143.18 154.658 138.302 156.882 132.934C159.105 127.565 160.25 121.811 160.25 116C160.25 110.189 159.105 104.435 156.882 99.0663C154.658 93.6976 151.398 88.8195 147.289 84.7105C143.18 80.6015 138.302 77.3421 132.934 75.1183C127.565 72.8946 121.811 71.75 116 71.75C110.189 71.75 104.435 72.8946 99.0663 75.1183C93.6976 77.3421 88.8195 80.6015 84.7105 84.7105C80.6015 88.8195 77.3421 93.6976 75.1183 99.0663C72.8946 104.435 71.75 110.189 71.75 116Z" stroke="white" stroke-width="9.83333" stroke-linecap="round" stroke-linejoin="round"/>
<path d="M91.417 116C91.417 109.48 94.007 103.227 98.6173 98.617C103.228 94.0068 109.48 91.4167 116 91.4167M116 140.583C122.52 140.583 128.773 137.993 133.383 133.383C137.994 128.773 140.584 122.52 140.584 116M111.084 116C111.084 117.304 111.602 118.555 112.524 119.477C113.446 120.399 114.696 120.917 116 120.917C117.304 120.917 118.555 120.399 119.477 119.477C120.399 118.555 120.917 117.304 120.917 116C120.917 114.696 120.399 113.446 119.477 112.523C118.555 111.601 117.304 111.083 116 111.083C114.696 111.083 113.446 111.601 112.524 112.523C111.602 113.446 111.084 114.696 111.084 116Z" stroke="white" stroke-width="9.83333" stroke-linecap="round" stroke-linejoin="round"/>
</svg>
