<svg width="170" height="170" viewBox="0 0 170 170" fill="none" xmlns="http://www.w3.org/2000/svg">
<g clip-path="url(#clip0_2012_10959)">
<rect x="-5" y="-4.59961" width="180" height="180" fill="url(#paint0_linear_2012_10959)"/>
<path d="M50.2847 68.9881C52.2297 68.6051 51.7727 68.7328 52.4535 68.9881C49.3414 74.1048 47.2933 88.6344 51.8057 95.8342C49.0827 97.9405 41.4971 95.164 41.3026 92.3875C38.6768 91.7173 36.1483 89.0365 36.1483 86.4514C36.1483 83.8664 35.0785 74.6751 38.1905 72.1858C40.1356 71.0369 40.8163 70.6286 41.3026 70.501C42.8262 59.6501 54.254 39.0588 84.9853 39.0588C115.717 39.0588 127.144 59.6501 128.668 70.501C129.136 70.6239 129.785 71.0074 131.572 72.0626L131.78 72.1858C134.892 74.6751 133.822 83.8664 133.822 86.4514C133.822 89.0365 131.294 91.7173 128.668 92.3875C128.474 95.164 120.888 97.9405 118.165 95.8342C122.677 88.6344 120.629 74.1048 117.517 68.9881C118.198 68.7328 118.175 68.6051 120.12 68.9881C122.551 69.4668 112.881 45.5652 84.9853 45.5652C57.0894 45.5652 47.8534 69.4668 50.2847 68.9881Z" fill="white"/>
<path d="M84.9858 50.1843C102.781 50.1843 117.208 64.6105 117.208 82.406C117.208 91.4397 113.49 99.7676 107.501 105.778C108.035 105.247 108.55 104.698 109.047 104.132C108.199 106.441 107.699 111.877 112.485 115.152C118.467 119.245 115.309 128.482 109.047 128.482C103.049 128.482 98.9586 126.742 94.3501 113.82C93.9607 113.943 93.5678 114.058 93.1724 114.166L93.1987 123.423V123.47C93.1985 128.006 89.5215 131.683 84.9858 131.683C80.4503 131.683 76.7731 128.006 76.7729 123.47L76.7739 123.423L76.7993 114.166C76.4473 114.07 76.0977 113.968 75.7505 113.86C71.1324 126.842 67.0387 128.587 61.0298 128.587C54.7678 128.587 51.6102 119.351 57.5923 115.258C62.3782 111.983 61.8782 106.546 61.0298 104.237L60.5542 103.682C55.6995 97.9008 52.7642 90.4322 52.7642 82.406C52.7642 64.6106 67.1905 50.1845 84.9858 50.1843ZM91.2632 92.8162C89.6662 92.3051 87.957 93.185 87.4458 94.782C87.4939 94.6317 87.4275 94.8839 87.0679 95.1648C86.7769 95.392 86.1956 95.7155 85.0903 95.7156C83.9845 95.7156 83.4027 95.392 83.1118 95.1648C82.7524 94.884 82.6859 94.6321 82.7339 94.782C82.2226 93.1851 80.5135 92.3051 78.9165 92.8162C77.3197 93.3275 76.4397 95.0366 76.9507 96.6335C77.5824 98.6068 80.0684 101.788 85.0903 101.788C90.1123 101.788 92.5983 98.6067 93.23 96.6335C93.7411 95.0364 92.8603 93.3273 91.2632 92.8162ZM61.0083 81.0417C58.5737 81.0417 56.6001 83.9082 56.6001 87.4441C56.6002 90.9799 58.5738 93.8464 61.0083 93.8464C63.4427 93.8463 65.4164 90.9798 65.4165 87.4441C65.4165 83.9083 63.4428 81.0419 61.0083 81.0417ZM109.173 81.0417C106.739 81.0417 104.765 83.9082 104.765 87.4441C104.765 90.9799 106.739 93.8464 109.173 93.8464C111.608 93.8462 113.581 90.9797 113.582 87.4441C113.582 83.9083 111.608 81.042 109.173 81.0417Z" fill="white"/>
</g>
<defs>
<linearGradient id="paint0_linear_2012_10959" x1="3.9619" y1="1.05881" x2="169.642" y2="175.441" gradientUnits="userSpaceOnUse">
<stop offset="0.240385" stop-color="#6144E9"/>
<stop offset="1" stop-color="#94CAD9"/>
</linearGradient>
<clipPath id="clip0_2012_10959">
<rect width="170" height="170" fill="white"/>
</clipPath>
</defs>
</svg>
