<svg width="170" height="170" viewBox="0 0 170 170" fill="none" xmlns="http://www.w3.org/2000/svg">
<g clip-path="url(#clip0_2012_10959)">
<rect x="-5" y="-4.59961" width="180" height="180" fill="url(#paint0_linear_2012_10959)"/>
<path d="M41.0812 64.6429C43.5421 64.1584 42.9639 64.3199 43.8252 64.6429C39.8878 71.1166 37.2963 89.4999 43.0056 98.6094C39.5604 101.274 29.9628 97.7614 29.7167 94.2485C26.3945 93.4005 23.1954 90.0087 23.1954 86.738C23.1954 83.4673 21.8419 71.8382 25.7793 68.6887C28.2402 67.2351 29.1015 66.7185 29.7167 66.557C31.6445 52.8282 46.1032 26.7755 84.9854 26.7755C123.868 26.7755 138.326 52.8282 140.254 66.557C140.847 66.7126 141.668 67.1977 143.928 68.5328L144.191 68.6887C148.129 71.8382 146.775 83.4673 146.775 86.738C146.775 90.0087 143.576 93.4005 140.254 94.2485C140.008 97.7614 130.41 101.274 126.965 98.6094C132.674 89.4999 130.083 71.1166 126.146 64.6429C127.007 64.3199 126.978 64.1584 129.438 64.6429C132.515 65.2486 120.28 35.0076 84.9854 35.0076C49.6907 35.0076 38.0051 65.2486 41.0812 64.6429Z" fill="white"/>
<path d="M84.9868 40.8518C107.502 40.8521 125.754 59.1042 125.754 81.6194C125.754 93.049 121.05 103.586 113.473 111.191C114.148 110.519 114.801 109.824 115.429 109.108C114.356 112.029 113.723 118.908 119.779 123.051C127.348 128.23 123.352 139.916 115.429 139.916C107.84 139.916 102.665 137.715 96.8345 121.365C96.3417 121.521 95.8447 121.666 95.3442 121.802L95.3774 133.515V133.575C95.3772 139.314 90.7253 143.966 84.9868 143.966C79.2481 143.966 74.5954 139.314 74.5952 133.575V133.515L74.6284 121.802C74.1828 121.681 73.7398 121.553 73.3003 121.416C67.4575 137.841 62.2787 140.049 54.6763 140.049C46.7533 140.049 42.7584 128.363 50.3276 123.184C56.3826 119.041 55.7497 112.162 54.6763 109.24L54.0737 108.539C47.9314 101.224 44.2183 91.7743 44.2183 81.6194C44.2183 59.1041 62.4715 40.8518 84.9868 40.8518ZM92.9282 94.7903C90.9076 94.1439 88.7447 95.258 88.0981 97.2786C88.1592 97.0877 88.0759 97.4073 87.6206 97.7629C87.2524 98.0504 86.5161 98.4592 85.1177 98.4592C83.7189 98.4591 82.9828 98.0504 82.6147 97.7629C82.1595 97.4073 82.0761 97.0877 82.1372 97.2786C81.4906 95.2578 79.3278 94.1437 77.3071 94.7903C75.2867 95.4371 74.1723 97.5998 74.8188 99.6204C75.6179 102.117 78.7635 106.142 85.1177 106.142C91.472 106.142 94.6174 102.117 95.4165 99.6204C96.0631 97.5996 94.9489 95.4369 92.9282 94.7903ZM54.6489 79.8928C51.5687 79.8928 49.0718 83.5198 49.0718 87.9934C49.0718 92.4671 51.5686 96.094 54.6489 96.094C57.7292 96.0939 60.2261 92.4671 60.2261 87.9934C60.226 83.5198 57.7291 79.8929 54.6489 79.8928ZM115.589 79.8928C112.509 79.8928 110.011 83.5197 110.011 87.9934C110.011 92.4671 112.509 96.094 115.589 96.094C118.669 96.0936 121.167 92.4669 121.167 87.9934C121.166 83.52 118.669 79.8932 115.589 79.8928Z" fill="white"/>
</g>
<defs>
<linearGradient id="paint0_linear_2012_10959" x1="3.9619" y1="1.05881" x2="169.642" y2="175.441" gradientUnits="userSpaceOnUse">
<stop offset="0.240385" stop-color="#6144E9"/>
<stop offset="1" stop-color="#94CAD9"/>
</linearGradient>
<clipPath id="clip0_2012_10959">
<rect width="170" height="170" fill="white"/>
</clipPath>
</defs>
</svg>
